<?xml version="1.0" encoding="UTF-8" standalone="no"?>
<!DOCTYPE svg PUBLIC "-//W3C//DTD SVG 1.1//EN"
 "http://www.w3.org/Graphics/SVG/1.1/DTD/svg11.dtd">
<!-- Generated by graphviz version 2.47.0 (20210316.0004)
 -->
<!-- Title: dependencies Pages: 1 -->
<svg width="616pt" height="284pt"
 viewBox="0.00 0.00 616.00 284.00" xmlns="http://www.w3.org/2000/svg" xmlns:xlink="http://www.w3.org/1999/xlink">
<g id="graph0" class="graph" transform="scale(1 1) rotate(0) translate(4 280)">
<title>dependencies</title>
<polygon fill="white" stroke="transparent" points="-4,4 -4,-280 612,-280 612,4 -4,4"/>
<text text-anchor="start" x="283.01" y="-42.4" font-family="Times-12" font-weight="bold" font-size="14.00">Legend</text>
<polygon fill="#ffffb3" stroke="transparent" points="70,-10 70,-30 90,-30 90,-10 70,-10"/>
<text text-anchor="start" x="93.63" y="-15.4" font-family="Times-12" font-size="14.00"> &#160;Declarations</text>
<polygon fill="#8dd3c7" stroke="transparent" points="183,-10 183,-30 203,-30 203,-10 183,-10"/>
<text text-anchor="start" x="206.73" y="-15.4" font-family="Times-12" font-size="14.00"> &#160;Module</text>
<polygon fill="#80b1d3" stroke="transparent" points="269,-10 269,-30 289,-30 289,-10 269,-10"/>
<text text-anchor="start" x="292.78" y="-15.4" font-family="Times-12" font-size="14.00"> &#160;Bootstrap</text>
<polygon fill="#fdb462" stroke="transparent" points="366,-10 366,-30 386,-30 386,-10 366,-10"/>
<text text-anchor="start" x="389.67" y="-15.4" font-family="Times-12" font-size="14.00"> &#160;Providers</text>
<polygon fill="#fb8072" stroke="transparent" points="462,-10 462,-30 482,-30 482,-10 462,-10"/>
<text text-anchor="start" x="485.73" y="-15.4" font-family="Times-12" font-size="14.00"> &#160;Exports</text>
<g id="clust1" class="cluster">
<title>cluster_SharedModule</title>
<polygon fill="none" stroke="black" stroke-dasharray="1,5" points="8,-70 8,-268 600,-268 600,-70 8,-70"/>
</g>
<g id="clust6" class="cluster">
<title>cluster_SharedModule_providers</title>
<polygon fill="none" stroke="black" points="16,-78 16,-130 592,-130 592,-78 16,-78"/>
</g>
<g id="clust4" class="cluster">
<title>cluster_SharedModule_exports</title>
<polygon fill="none" stroke="black" points="82,-208 82,-260 526,-260 526,-208 82,-208"/>
</g>
<!-- EmailHelperService  -->
<g id="node1" class="node">
<title>EmailHelperService </title>
<polygon fill="#fb8072" stroke="black" points="517.5,-252 384.5,-252 384.5,-216 517.5,-216 517.5,-252"/>
<text text-anchor="middle" x="451" y="-229.8" font-family="Times,serif" font-size="14.00">EmailHelperService </text>
</g>
<!-- JWTHelperService  -->
<g id="node2" class="node">
<title>JWTHelperService </title>
<polygon fill="#fb8072" stroke="black" points="366.28,-252 239.72,-252 239.72,-216 366.28,-216 366.28,-252"/>
<text text-anchor="middle" x="303" y="-229.8" font-family="Times,serif" font-size="14.00">JWTHelperService </text>
</g>
<!-- RedisHelperService  -->
<g id="node3" class="node">
<title>RedisHelperService </title>
<polygon fill="#fb8072" stroke="black" points="221.95,-252 90.05,-252 90.05,-216 221.95,-216 221.95,-252"/>
<text text-anchor="middle" x="156" y="-229.8" font-family="Times,serif" font-size="14.00">RedisHelperService </text>
</g>
<!-- SharedModule -->
<g id="node4" class="node">
<title>SharedModule</title>
<polygon fill="#8dd3c7" stroke="black" points="352.42,-187 349.42,-191 328.42,-191 325.42,-187 253.58,-187 253.58,-151 352.42,-151 352.42,-187"/>
<text text-anchor="middle" x="303" y="-164.8" font-family="Times,serif" font-size="14.00">SharedModule</text>
</g>
<!-- SharedModule&#45;&gt;EmailHelperService  -->
<g id="edge1" class="edge">
<title>SharedModule&#45;&gt;EmailHelperService </title>
<path fill="none" stroke="black" stroke-dasharray="5,2" d="M352.4,-175C375.01,-175 396.85,-175 396.85,-175 396.85,-175 396.85,-205.98 396.85,-205.98"/>
<polygon fill="black" stroke="black" points="393.35,-205.98 396.85,-215.98 400.35,-205.98 393.35,-205.98"/>
</g>
<!-- SharedModule&#45;&gt;JWTHelperService  -->
<g id="edge2" class="edge">
<title>SharedModule&#45;&gt;JWTHelperService </title>
<path fill="none" stroke="black" stroke-dasharray="5,2" d="M303,-187.11C303,-187.11 303,-205.99 303,-205.99"/>
<polygon fill="black" stroke="black" points="299.5,-205.99 303,-215.99 306.5,-205.99 299.5,-205.99"/>
</g>
<!-- SharedModule&#45;&gt;RedisHelperService  -->
<g id="edge3" class="edge">
<title>SharedModule&#45;&gt;RedisHelperService </title>
<path fill="none" stroke="black" stroke-dasharray="5,2" d="M253.58,-175C230.96,-175 209.11,-175 209.11,-175 209.11,-175 209.11,-205.98 209.11,-205.98"/>
<polygon fill="black" stroke="black" points="205.61,-205.98 209.11,-215.98 212.61,-205.98 205.61,-205.98"/>
</g>
<!-- EmailHelperService -->
<g id="node5" class="node">
<title>EmailHelperService</title>
<ellipse fill="#fdb462" stroke="black" cx="495" cy="-104" rx="89.16" ry="18"/>
<text text-anchor="middle" x="495" y="-99.8" font-family="Times,serif" font-size="14.00">EmailHelperService</text>
</g>
<!-- EmailHelperService&#45;&gt;SharedModule -->
<g id="edge4" class="edge">
<title>EmailHelperService&#45;&gt;SharedModule</title>
<path fill="none" stroke="black" d="M461.59,-120.75C461.59,-138.19 461.59,-163 461.59,-163 461.59,-163 362.31,-163 362.31,-163"/>
<polygon fill="black" stroke="black" points="362.31,-159.5 352.31,-163 362.31,-166.5 362.31,-159.5"/>
</g>
<!-- JWTHelperService -->
<g id="node6" class="node">
<title>JWTHelperService</title>
<ellipse fill="#fdb462" stroke="black" cx="303" cy="-104" rx="85.07" ry="18"/>
<text text-anchor="middle" x="303" y="-99.8" font-family="Times,serif" font-size="14.00">JWTHelperService</text>
</g>
<!-- JWTHelperService&#45;&gt;SharedModule -->
<g id="edge5" class="edge">
<title>JWTHelperService&#45;&gt;SharedModule</title>
<path fill="none" stroke="black" d="M303,-122.11C303,-122.11 303,-140.99 303,-140.99"/>
<polygon fill="black" stroke="black" points="299.5,-140.99 303,-150.99 306.5,-140.99 299.5,-140.99"/>
</g>
<!-- RedisHelperService -->
<g id="node7" class="node">
<title>RedisHelperService</title>
<ellipse fill="#fdb462" stroke="black" cx="112" cy="-104" rx="88.02" ry="18"/>
<text text-anchor="middle" x="112" y="-99.8" font-family="Times,serif" font-size="14.00">RedisHelperService</text>
</g>
<!-- RedisHelperService&#45;&gt;SharedModule -->
<g id="edge6" class="edge">
<title>RedisHelperService&#45;&gt;SharedModule</title>
<path fill="none" stroke="black" d="M145.27,-120.75C145.27,-138.19 145.27,-163 145.27,-163 145.27,-163 243.52,-163 243.52,-163"/>
<polygon fill="black" stroke="black" points="243.52,-166.5 253.52,-163 243.52,-159.5 243.52,-166.5"/>
</g>
</g>
</svg>
